<svg width="33" height="33" viewBox="0 0 33 33" fill="none" xmlns="http://www.w3.org/2000/svg">
<g id="Asset 4 1" clip-path="url(#clip0_1793_14)">
<g id="Layer 1">
<path id="Vector" d="M33 16.5C17.368 16.0204 16.9796 15.632 16.5 0C16.0204 15.632 15.632 16.0204 0 16.5C15.632 16.9796 16.0204 17.368 16.5 33C16.9796 17.368 17.368 16.9796 33 16.5Z" fill="white"/>
<path id="Vector_2" d="M28.3385 4.66123C32.0118 8.33457 29.6892 16.6128 23.1509 23.1512C16.6125 29.6895 8.33427 32.0121 4.66093 28.3388C0.987593 24.6654 3.31016 16.3872 9.84853 9.84883C16.3869 3.31046 24.6651 0.987895 28.3385 4.66123Z" stroke="white" stroke-miterlimit="10"/>
</g>
</g>
<defs>
<clipPath id="clip0_1793_14">
<rect width="33" height="33" fill="white" transform="matrix(1 0 0 -1 0 33)"/>
</clipPath>
</defs>
</svg>
