<svg width="80" height="40" viewBox="0 0 80 40" fill="none" xmlns="http://www.w3.org/2000/svg">
<path d="M1.58416 0H0V39.604H1.58416V0Z" fill="white"/>
<path d="M3.1683 0H2.37622V39.604H3.1683V0Z" fill="white"/>
<path d="M5.54452 0H4.75244V39.604H5.54452V0Z" fill="white"/>
<path d="M10.297 0H8.71289V39.604H10.297V0Z" fill="white"/>
<path d="M13.4654 0H11.0891V39.604H13.4654V0Z" fill="white"/>
<path d="M16.6336 0H15.8416V39.604H16.6336V0Z" fill="white"/>
<path d="M18.2179 0H17.4258V39.604H18.2179V0Z" fill="white"/>
<path d="M21.3862 0H19.802V39.604H21.3862V0Z" fill="white"/>
<path d="M25.3465 0H24.5544V39.604H25.3465V0Z" fill="white"/>
<path d="M26.9305 0H26.1384V39.604H26.9305V0Z" fill="white"/>
<path d="M29.307 0H28.5149V39.604H29.307V0Z" fill="white"/>
<path d="M31.6833 0H30.0991V39.604H31.6833V0Z" fill="white"/>
<path d="M35.6434 0H34.8513V39.604H35.6434V0Z" fill="white"/>
<path d="M38.0199 0H37.2278V39.604H38.0199V0Z" fill="white"/>
<path d="M42.7724 0H41.1882V39.604H42.7724V0Z" fill="white"/>
<path d="M45.1486 0H43.5645V39.604H45.1486V0Z" fill="white"/>
<path d="M47.5246 0H45.9404V39.604H47.5246V0Z" fill="white"/>
<path d="M51.4852 0H48.3169V39.604H51.4852V0Z" fill="white"/>
<path d="M53.0694 0H52.2773V39.604H53.0694V0Z" fill="white"/>
<path d="M57.0299 0H53.8616V39.604H57.0299V0Z" fill="white"/>
<path d="M59.4058 0H58.6138V39.604H59.4058V0Z" fill="white"/>
<path d="M63.3665 0H60.9902V39.604H63.3665V0Z" fill="white"/>
<path d="M64.9505 0H64.1584V39.604H64.9505V0Z" fill="white"/>
<path d="M67.3268 0H65.7427V39.604H67.3268V0Z" fill="white"/>
<path d="M71.2873 0H69.7031V39.604H71.2873V0Z" fill="white"/>
<path d="M76.0398 0H73.6636V39.604H76.0398V0Z" fill="white"/>
<path d="M77.6239 0H76.8318V39.604H77.6239V0Z" fill="white"/>
<path d="M79.9999 0H78.4158V39.604H79.9999V0Z" fill="white"/>
</svg>
