<svg width="202" height="25" viewBox="0 0 202 25" fill="none" xmlns="http://www.w3.org/2000/svg">
<path d="M3.99987 0H0V25H3.99987V0Z" fill="black"/>
<path d="M8.00013 0H6V25H8.00013V0Z" fill="black"/>
<path d="M14.0001 0H12V25H14.0001V0Z" fill="black"/>
<path d="M26.0004 0H22.0005V25H26.0004V0Z" fill="black"/>
<path d="M34.0005 0H28.0005V25H34.0005V0Z" fill="black"/>
<path d="M42.0006 0H40.0005V25H42.0006V0Z" fill="black"/>
<path d="M46.0001 0H44V25H46.0001V0Z" fill="black"/>
<path d="M53.9999 0H50V25H53.9999V0Z" fill="black"/>
<path d="M64.0001 0H62V25H64.0001V0Z" fill="black"/>
<path d="M68.0006 0H66.0005V25H68.0006V0Z" fill="black"/>
<path d="M74.0006 0H72.0005V25H74.0006V0Z" fill="black"/>
<path d="M80.0004 0H76.0005V25H80.0004V0Z" fill="black"/>
<path d="M90.0006 0H88.0005V25H90.0006V0Z" fill="black"/>
<path d="M96.0006 0H94.0005V25H96.0006V0Z" fill="black"/>
<path d="M108 0H104V25H108V0Z" fill="black"/>
<path d="M114 0H110V25H114V0Z" fill="black"/>
<path d="M120 0H116V25H120V0Z" fill="black"/>
<path d="M130.001 0H122V25H130.001V0Z" fill="black"/>
<path d="M134.001 0H132V25H134.001V0Z" fill="black"/>
<path d="M144 0H136V25H144V0Z" fill="black"/>
<path d="M150.001 0H148V25H150.001V0Z" fill="black"/>
<path d="M160 0H154V25H160V0Z" fill="black"/>
<path d="M164.001 0H162V25H164.001V0Z" fill="black"/>
<path d="M170 0H166V25H170V0Z" fill="black"/>
<path d="M180 0H176V25H180V0Z" fill="black"/>
<path d="M192.001 0H186.001V25H192.001V0Z" fill="black"/>
<path d="M196.001 0H194V25H196.001V0Z" fill="black"/>
<path d="M202.001 0H198.001V25H202.001V0Z" fill="black"/>
</svg>
