<svg width="24" height="24" viewBox="0 0 24 24" fill="none" xmlns="http://www.w3.org/2000/svg">
<path d="M18.4639 2.11398C18.3024 2.02905 18.1208 1.99001 17.9386 2.00112C17.7565 2.01223 17.5809 2.07305 17.4309 2.17698L4.43093 11.177C4.29849 11.2694 4.19033 11.3925 4.11564 11.5357C4.04095 11.6789 4.00195 11.838 4.00195 11.9995C4.00195 12.161 4.04095 12.3201 4.11564 12.4633C4.19033 12.6065 4.29849 12.7295 4.43093 12.822L17.4309 21.822C17.581 21.9258 17.7565 21.9866 17.9386 21.9978C18.1207 22.0089 18.3024 21.9701 18.464 21.8854C18.6256 21.8008 18.761 21.6735 18.8554 21.5174C18.9499 21.3614 18.9999 21.1824 18.9999 21V2.99998C19 2.81744 18.95 2.63838 18.8555 2.4822C18.7611 2.32602 18.6256 2.19868 18.4639 2.11398ZM16.9999 19.091L6.75693 12L16.9999 4.90898V19.091Z" fill="black"/>
</svg>
