<svg width="20" height="50" viewBox="0 0 20 50" fill="none" xmlns="http://www.w3.org/2000/svg">
<path d="M19.2805 0.313224V42.6681C19.2805 42.7511 19.248 42.8304 19.1899 42.8891L14.956 47.1601L12.234 49.9078C12.0387 50.1048 11.7053 49.9653 11.7053 49.6868V29.5766C11.7053 29.2981 11.3718 29.1587 11.1766 29.3557L7.57562 32.9891L4.2441 36.3518L0.528685 40.1001C0.333444 40.2971 0 40.1576 0 39.8791V29.9533C0 29.8703 0.0325401 29.791 0.0906735 29.7323L11.6142 18.104C11.6724 18.0453 11.7049 17.966 11.7049 17.883V7.33228C11.7049 7.24928 11.7375 7.16996 11.7956 7.1113L18.7519 0.0922412C18.9471 -0.104762 19.2805 0.0346898 19.2805 0.313224Z" fill="white"/>
</svg>
