<svg width="20" height="41" viewBox="0 0 20 41" fill="none" xmlns="http://www.w3.org/2000/svg">
<path d="M19.6251 11.2055V31.941C19.6251 32.024 19.5926 32.1033 19.5345 32.162L12.5782 39.181C12.383 39.378 12.0495 39.2386 12.0495 38.96V29.6581C12.0495 29.3796 11.7161 29.2401 11.5208 29.4371L4.66915 36.3507L0.874389 40.1808C0.679148 40.3778 0.345703 40.2383 0.345703 39.9598V0.314628C0.345703 0.0360936 0.679148 -0.103358 0.874389 0.093645L7.82955 7.1116C7.88769 7.17025 7.92023 7.24957 7.92023 7.33258V21.5076C7.92023 21.7861 8.25367 21.9255 8.44891 21.7285L12.0499 18.0951L15.3825 14.7324L19.0968 10.9845C19.2921 10.7875 19.6255 10.927 19.6255 11.2055H19.6251Z" fill="white"/>
</svg>
