<svg width="339" height="68" viewBox="0 0 339 68" fill="none" xmlns="http://www.w3.org/2000/svg">
<g clip-path="url(#clip0_1444_22)">
<path d="M225.357 0.0424805H284.405V10.9412H260.981V68.2778H249.268V10.9412H225.357V0.0424805Z" fill="black"/>
<path d="M128.245 0.0424805V10.9412H80.9146V28.4739H118.978V39.3725H80.9146V57.3791H128.245V68.2778H69.2027V10.9412H69.1978V0.0424805H128.245Z" fill="black"/>
<path d="M157.73 0.0708008H142.402L197.301 68.3061H212.673L185.22 34.2119L212.63 0.12286L197.301 0.146547L177.547 24.6815L157.73 0.0708008Z" fill="black"/>
<path d="M173.458 48.8116L165.782 39.2681L142.358 68.3581H157.73L173.458 48.8116Z" fill="black"/>
<path fill-rule="evenodd" clip-rule="evenodd" d="M69.6129 68.2779L14.6399 0.0141602H0V68.2494H11.7119V14.5994L54.8997 68.2779H69.6129Z" fill="black"/>
<path d="M287.038 67.8611C286.18 67.8611 285.45 67.564 284.839 66.9697C284.228 66.3754 283.926 65.656 283.934 64.8037C283.926 63.9747 284.228 63.2631 284.839 62.6688C285.45 62.0745 286.18 61.7773 287.038 61.7773C287.863 61.7773 288.585 62.0745 289.196 62.6688C289.815 63.2631 290.124 63.9747 290.133 64.8037C290.124 65.3666 289.981 65.8827 289.696 66.344C289.402 66.8133 289.03 67.1809 288.561 67.4467C288.1 67.7204 287.593 67.8611 287.038 67.8611Z" fill="black"/>
<path d="M307.027 39.1152H312.217V59.1105C312.21 60.9481 311.812 62.5199 311.035 63.8415C310.25 65.163 309.162 66.1716 307.766 66.8833C306.377 67.587 304.75 67.9468 302.901 67.9468C301.21 67.9468 299.695 67.6418 298.346 67.0475C296.997 66.4533 295.926 65.5618 295.14 64.3888C294.346 63.2158 293.957 61.7536 293.957 60.0019H299.156C299.163 60.7683 299.338 61.4329 299.671 61.9881C300.004 62.5433 300.464 62.9655 301.052 63.2627C301.646 63.5599 302.33 63.7085 303.099 63.7085C303.933 63.7085 304.647 63.5364 305.226 63.1845C305.805 62.8404 306.25 62.3243 306.559 61.6362C306.861 60.956 307.02 60.1114 307.027 59.1105V39.1152Z" fill="black"/>
<path d="M333.572 46.9354C333.445 45.7233 332.89 44.7771 331.922 44.1046C330.945 43.4243 329.684 43.0881 328.136 43.0881C327.049 43.0881 326.113 43.2523 325.335 43.5729C324.557 43.9013 323.954 44.3392 323.541 44.8944C323.129 45.4496 322.923 46.083 322.906 46.7947C322.906 47.389 323.049 47.905 323.327 48.3352C323.605 48.773 323.977 49.1406 324.462 49.4378C324.938 49.7427 325.469 49.9929 326.049 50.1962C326.636 50.3995 327.224 50.5716 327.811 50.7124L330.517 51.377C331.604 51.6272 332.66 51.9636 333.667 52.3936C334.675 52.8159 335.588 53.3555 336.389 54.0045C337.191 54.6535 337.826 55.4355 338.294 56.3504C338.762 57.2653 339 58.3366 339 59.5721C339 61.2377 338.572 62.7001 337.706 63.9668C336.841 65.2258 335.596 66.2111 333.961 66.9228C332.334 67.6266 330.366 67.9862 328.049 67.9862C325.811 67.9862 323.859 67.6422 322.216 66.9541C320.566 66.2738 319.28 65.2728 318.351 63.959C317.423 62.6453 316.923 61.0422 316.852 59.1577H321.994C322.066 60.1429 322.383 60.9641 322.923 61.6288C323.47 62.2856 324.184 62.7704 325.057 63.0989C325.938 63.4195 326.922 63.5837 328.009 63.5837C329.144 63.5837 330.144 63.4116 331.009 63.0754C331.866 62.7391 332.54 62.27 333.025 61.6601C333.517 61.0579 333.763 60.3463 333.771 59.5331C333.763 58.7902 333.54 58.1724 333.112 57.6875C332.675 57.2028 332.072 56.7961 331.302 56.4677C330.525 56.1393 329.62 55.8421 328.588 55.5841L325.303 54.7552C322.93 54.153 321.049 53.2382 319.676 52.0105C318.296 50.7828 317.613 49.1562 317.613 47.1153C317.613 45.4419 318.073 43.9718 319.003 42.7127C319.922 41.4538 321.185 40.4763 322.78 39.7803C324.383 39.0766 326.192 38.7324 328.207 38.7324C330.255 38.7324 332.048 39.0766 333.596 39.7803C335.143 40.4763 336.358 41.446 337.238 42.6814C338.119 43.917 338.579 45.3323 338.603 46.9354H333.572Z" fill="black"/>
</g>
<defs>
<clipPath id="clip0_1444_22">
<rect width="339" height="68" fill="white"/>
</clipPath>
</defs>
</svg>
