<svg width="25" height="25" viewBox="0 0 25 25" fill="none" xmlns="http://www.w3.org/2000/svg">
<path d="M5.46875 21.875C5.26155 21.875 5.06284 21.7927 4.91632 21.6462C4.76981 21.4997 4.6875 21.3009 4.6875 21.0937V3.90624C4.68752 3.77048 4.72292 3.63707 4.79021 3.51916C4.85749 3.40125 4.95434 3.30291 5.07121 3.23383C5.18808 3.16475 5.32093 3.12731 5.45668 3.12522C5.59242 3.12312 5.72636 3.15643 5.84531 3.22186L21.4703 11.8156C21.5928 11.8831 21.6949 11.9821 21.7661 12.1025C21.8372 12.2229 21.8748 12.3602 21.8748 12.5C21.8748 12.6398 21.8372 12.7771 21.7661 12.8975C21.6949 13.0178 21.5928 13.1169 21.4703 13.1844L5.84531 21.7781C5.72996 21.8416 5.60043 21.8749 5.46875 21.875Z" fill="black"/>
</svg>
