<?xml version="1.0" encoding="UTF-8"?>
<svg id="Layer_2" data-name="Layer 2" xmlns="http://www.w3.org/2000/svg" viewBox="0 0 820.33 121.62">
  <defs>
    <style>
      .cls-1 {
        stroke: #231f20;
        stroke-miterlimit: 10;
      }
    </style>
  </defs>
  <g id="Layer_1-2" data-name="Layer 1">
    <polygon points="560.38 121.12 680.35 121.12 680.35 19.2 662.3 1.15 620.36 1.15 650.36 31.15 650.36 69.92 581.59 1.15 560.38 1.15 560.38 22.36 629.15 91.13 590.37 91.13 560.38 61.14 560.38 121.12"/>
    <g>
      <polygon points="400.41 61.26 400.41 19.2 382.36 1.15 310.56 1.15 340.56 31.15 370.42 31.15 370.42 31.27 400.41 61.26"/>
      <path d="M280.44,121.12h119.97v-29.99h-8.68S310.43,9.84,310.43,9.84l-8.69-8.69h-21.31V121.12Zm29.99-29.99V52.25s38.88,38.88,38.88,38.88h-38.88Z"/>
    </g>
    <polygon points="200.42 91.13 170.46 91.13 170.46 52.36 239.23 121.12 260.44 121.12 260.44 91.13 251.65 91.13 191.67 31.15 230.45 31.15 260.44 61.14 260.44 18.73 242.86 1.15 140.47 1.15 140.47 121.12 230.42 121.12 200.42 91.13"/>
    <polygon points="700.35 121.12 718.35 121.12 718.28 121.06 790.08 121.06 760.21 91.19 730.35 91.19 730.35 91.13 730.34 91.13 730.34 52.25 769.22 91.13 769.19 91.13 799.12 121.06 820.33 121.06 820.33 61.07 820.32 61.06 820.32 19.2 802.27 1.15 730.47 1.15 760.4 31.08 790.34 31.08 790.34 69.86 751.56 31.08 751.58 31.08 730.34 9.84 721.66 1.15 700.35 1.15 700.35 121.12"/>
    <path d="M480.36,91.13h-29.96s0-38.77,0-38.77l68.77,68.77h21.21V39.96h-29.99v29.96s-38.78-38.78-38.78-38.78h68.77v-11.94s-18.05-18.05-18.05-18.05h-101.92V121.12h89.95s-29.99-29.99-29.99-29.99Z"/>
    <g>
      <polygon points="120.47 103.55 120.47 61.14 60.48 1.15 9.26 1.15 39.25 31.15 48.06 31.15 90.48 73.56 120.47 103.55"/>
      <polygon class="cls-1" points="30.49 121.12 30.49 73.61 78 121.12 120.42 121.12 .5 1.21 .5 121.12 30.49 121.12"/>
      <polygon points="30.49 121.12 30.49 73.61 78 121.12 120.42 121.12 .5 1.21 .5 121.12 30.49 121.12"/>
    </g>
  </g>
</svg>